<svg width="813" height="591" viewBox="0 0 813 591" fill="none" xmlns="http://www.w3.org/2000/svg">
<path d="M796.544 162.068L458.9 0L37.1492 212.029C6.47272 237.619 -33.9146 312.194 49.948 405.779L294.566 530.072C294.019 526.496 293.735 522.834 293.735 519.105C293.735 507.492 296.489 496.523 301.38 486.813L71.2794 364.958C51.7765 339.368 23.4972 279.659 66.4036 245.539L357.119 394.203L796.544 162.068Z" fill="#2BB1B9"/>
<path d="M440.007 519.105L694.154 381.844C682.863 372.945 674.305 360.735 669.944 346.679L426.436 477.065C434.975 488.888 440.007 503.409 440.007 519.105Z" fill="#2BB1B9"/>
<path fill-rule="evenodd" clip-rule="evenodd" d="M365.652 591H368.09C407.808 591 440.007 558.812 440.007 519.105C440.007 503.409 434.975 488.888 426.436 477.065C413.375 458.98 392.107 447.21 368.09 447.21H365.652C337.549 447.21 313.212 463.324 301.38 486.813C296.489 496.523 293.735 507.492 293.735 519.105C293.735 522.834 294.019 526.496 294.566 530.072C299.848 564.573 329.663 591 365.652 591ZM366.871 547.132H365.652C350.841 547.132 338.835 535.129 338.835 520.324C338.835 505.518 350.841 493.515 365.652 493.515H366.871C381.681 493.515 393.687 505.518 393.687 520.324C393.687 535.129 381.681 547.132 366.871 547.132Z" fill="#2BB1B9"/>
<path fill-rule="evenodd" clip-rule="evenodd" d="M738.645 397.249H741.083C780.802 397.249 813 365.061 813 325.355C813 285.648 780.802 253.46 741.083 253.46H738.645C698.926 253.46 666.728 285.648 666.728 325.355C666.728 332.78 667.854 339.942 669.944 346.679C674.305 360.735 682.863 372.945 694.154 381.844C706.395 391.492 721.847 397.249 738.645 397.249ZM739.864 352.772H738.645C723.835 352.772 711.829 340.77 711.829 325.964C711.829 311.158 723.835 299.156 738.645 299.156H739.864C754.674 299.156 766.681 311.158 766.681 325.964C766.681 340.77 754.674 352.772 739.864 352.772Z" fill="#2BB1B9"/>
</svg>
